<?xml version="1.0" encoding="UTF-8" standalone="no"?>
<!-- Created with Inkscape (http://www.inkscape.org/) -->

<svg
   version="1.1"
   id="svg1"
   width="740.69775"
   height="777.36993"
   viewBox="0 0 740.69775 777.36993"
   xmlns="http://www.w3.org/2000/svg"
   xmlns:svg="http://www.w3.org/2000/svg">
  <defs
     id="defs1" />
  <g
     id="g1"
     transform="translate(-147.30319,-119.89494)">
    <path
       style="fill:#000000"
       d="m 515.12193,896.69389 c -71.5977,-5.31053 -143.8575,-31.44048 -202.2656,-73.14149 -34.5673,-24.6796 -71.8936,-62.42646 -96.2637,-97.3482 -31.8333,-45.61623 -54.959,-101.28134 -63.964,-153.96569 -4.4709,-26.15737 -5.7917,-45.00882 -5.1877,-74.04548 1.1018,-52.97538 10.0177,-94.01253 31.3946,-144.5 24.3047,-57.40252 69.6028,-114.68203 122.2864,-154.63154 55.5472,-42.12102 119.6979,-68.07828 190,-76.8796 17.8784,-2.23825 51.2475,-2.97093 72,-1.58087 93.6132,6.27047 181.6232,45.92885 251.6887,113.41406 13.4529,12.95739 16.8375,19.25127 16.7571,31.1599 -0.065,9.66249 -2.748,15.77651 -9.7569,22.23716 -6.2487,5.75978 -10.2055,7.53741 -25.6889,11.54093 -13.8948,3.59275 -40.8111,10.8272 -56.25,15.11865 l -8.75,2.43217 v -10.68292 c 0,-12.2643 -0.5882,-13.63021 -7.6519,-17.76977 -3.4559,-2.02531 -6.3286,-2.78564 -11.8678,-3.14112 -7.0885,-0.45491 -7.3183,-0.39757 -7.6443,1.90697 -0.4254,3.00761 -3.0257,3.08338 -4.3232,0.12598 -0.8583,-1.9564 -1.7342,-2.25 -6.7125,-2.25 -6.0675,0 -15.3603,2.89899 -18.6128,5.80651 -1.8121,1.61986 -1.8391,2.36739 -0.6217,17.19349 0.7,8.525 1.309,18.03325 1.3534,21.12945 l 0.081,5.62945 -14.25,4.74445 c -19.1781,6.38525 -39.7596,14.03062 -60.137,22.33899 -14.3989,5.87081 -17.3919,6.77136 -20.3144,6.11224 -4.034,-0.90982 -6.2374,-2.92648 -43.0776,-39.42704 -32.3637,-32.06522 -33.7284,-33.02978 -46.721,-33.02249 -10.9723,0.006 -15.592,1.84605 -24.2146,9.64398 -3.2543,2.94303 -10.6123,9.45212 -16.3511,14.46464 -14.95,13.05788 -16.8322,15.13581 -20.2672,22.37487 -5.1941,10.94635 -3.8808,22.35138 3.7131,32.2448 1.3791,1.79666 9.0796,7.54166 17.1122,12.76666 8.0327,5.225 26.2889,17.15 40.5695,26.5 14.2805,9.35 32.8227,21.40462 41.2049,26.78804 13.9353,8.94986 15.3981,10.16941 17.0823,14.2415 1.0131,2.4494 3.1312,5.53823 4.7068,6.86407 l 2.8649,2.41062 -3.4217,3.62809 c -7.1984,7.63246 -7.1298,21.12482 0.1459,28.71903 l 2.5673,2.6797 -3.2394,4.70831 c -3.7881,5.50586 -5.1333,10.45178 -4.2942,15.78873 0.6554,4.16832 2.1077,5.13439 9.4939,6.31551 l 4.0553,0.64845 -0.7068,-5.13857 c -0.9465,-6.88198 1.9266,-12.98938 8.1129,-17.24565 l 4.4362,-3.05218 6.7149,1.51673 c 3.6932,0.83421 12.1149,2.18318 18.7149,2.99771 29.88,3.68763 39.2217,4.12986 87,4.11853 50.6052,-0.012 67.4985,-1.0081 94.3494,-5.56325 6.2422,-1.05895 11.8297,-1.92537 12.4167,-1.92537 0.587,0 0.8436,-0.22374 0.5701,-0.49719 -0.2735,-0.27345 -8.336,-0.0419 -17.9167,0.51461 -27.2535,1.583 -106.6967,1.28685 -131.9396,-0.49185 -38.3166,-2.69991 -58.9965,-6.03564 -71.9414,-11.60437 -5.8738,-2.52687 -9.0384,-6.00053 -9.0384,-9.9212 0,-5.29737 6.7295,-11 12.9808,-11 2.2614,0 3.8878,0.91968 6.1178,3.45961 7.7801,8.86104 27.2176,12.82987 43.9014,8.96398 11.3544,-2.631 14.861,-2.85931 16.8111,-1.09454 4.0816,3.69384 8.5925,4.52915 28.2461,5.23048 18.0652,0.64466 20.2221,0.52882 30.4428,-1.63493 9.8878,-2.09329 13.2749,-2.3079 33.5,-2.1226 l 22.5,0.20613 11.4396,-4.00406 c 6.2918,-2.20224 13.1939,-4.00407 15.338,-4.00407 2.3708,0 7.0965,1.45833 12.0604,3.72176 7.6591,3.49245 8.7781,3.7235 18.162,3.75 8.7732,0.0248 10.6962,-0.29814 15.6751,-2.63217 3.1213,-1.46322 7.6717,-4.50072 10.1118,-6.75 5.1763,-4.77131 9.3528,-5.33433 15.6687,-2.11223 5.1702,2.63766 8.2591,7.20262 8.8195,13.03382 0.6154,6.4048 -1.1408,11.18423 -5.5809,15.18833 l -3.6942,3.33145 3.4126,2.97508 c 6.8628,5.98283 8.7604,15.42931 4.7247,23.51916 -2.0662,4.1418 -2.1038,3.9748 0.8942,3.9748 3.4628,0 14.295,3.74028 17.555,6.06162 3.7995,2.70551 6.2483,8.34007 5.4572,12.55698 -0.8157,4.34799 -5.3662,9.55228 -11.2064,12.81643 -2.5029,1.39887 -10.6902,4.58374 -18.194,7.0775 -42.3341,14.06896 -103.4775,23.99628 -159.595,25.91207 -9.3234,0.31829 -16.5234,0.19813 -16,-0.26702 0.5234,-0.46515 3.6517,-1.88092 6.9517,-3.14615 11.0797,-4.24803 39.5977,-19.34528 44.2082,-23.40362 17.3635,-15.284 1.5008,-31.75866 -27.4594,-28.51861 -4.4175,0.49423 -16.5182,2.22343 -26.8903,3.84267 -44.5911,6.96129 -66.5228,9.0416 -95.3585,9.04512 -30.2584,0.004 -53.6963,-2.59156 -77.2994,-8.55926 -18.0402,-4.56121 -36.185,-12.94922 -46.0441,-21.28537 -10.6254,-8.9841 -14.6009,-16.10748 -14.6346,-26.22264 -0.04,-12.15408 7.7443,-23.29802 27.3833,-39.19933 4.8979,-3.96571 9.3903,-7.98945 9.9831,-8.94163 1.7038,-2.7369 -0.9613,-4.50419 -10.3873,-6.88782 -12.3971,-3.13497 -22.6898,-2.3428 -32.3469,2.48957 -8.6786,4.3427 -18.0794,11.73817 -30.4469,23.95212 -20.6529,20.39648 -29.2186,39.71317 -26.317,59.34776 4.947,33.47422 28.1962,70.33315 61.8315,98.02651 25.1021,20.66767 57.5462,38.22015 89.9509,48.66411 45.0218,14.51045 80.0975,19.32916 133.6504,18.36096 37.3191,-0.67471 59.7108,-3.32687 98.677,-11.68766 23.3452,-5.00909 45.0187,-10.81385 62.338,-16.69584 15.37,-5.21997 16.5797,-5.47298 24.6872,-5.16369 7.2304,0.27583 9.538,0.82412 15.1936,3.61012 10.1704,5.01005 16.4421,14.38417 17.5111,26.17357 0.8318,9.173 -1.6233,15.44175 -12.4576,31.80854 -54.5029,82.335 -137.1805,140.49567 -234.0258,164.62862 -12.7423,3.17526 -35.4683,7.19121 -51.7465,9.14424 -15.3237,1.83849 -58.1006,2.67737 -74.5,1.46099 z m 181.9752,-620.56596 c -0.5364,-1.4108 -0.9752,-4.48583 -0.9752,-6.83339 0,-3.41703 0.677,-5.04941 3.3947,-8.1849 l 3.3948,-3.91661 v 3.62889 c 0,1.99589 0.5335,4.61605 1.1793,5.82259 0.6457,1.20653 1.2532,4.40751 1.35,7.11329 0.2095,5.8569 0.9945,6.07576 8.4561,2.35748 5.89,-2.93509 9.6653,-6.9623 12.493,-13.32633 3.0597,-6.88655 2.1326,-19.45453 -2.0831,-28.2365 -3.9113,-8.14771 -10.2583,-15.35439 -18.7524,-21.29219 l -6.4374,-4.50025 v 4.77017 c 0,6.5182 -3.3981,12.91324 -12.0421,22.66285 -10.6937,12.06146 -12.8013,17.12056 -10.9159,26.20253 1.4955,7.20364 6.4113,12.29778 14.0305,14.53937 7.7128,2.26913 8.057,2.2289 6.9027,-0.807 z m -88.861,182.9326 c -4.7284,-3.31195 -6.0683,-8.58333 -6.0923,-23.96828 -0.012,-7.80085 -0.5295,-15.61947 -1.158,-17.5 -3.5337,-10.57327 -13.6626,-11.98857 -18.5252,-2.58852 -1.247,2.41061 -1.6978,6.36334 -1.8463,16.1893 -0.2752,18.20365 -2.9257,23.5 -11.7604,23.5 -4.8004,0 -8.3122,-3.25232 -9.3275,-8.63827 -1.1313,-6.00172 1.4133,-45.98988 3.1985,-50.2636 4.4825,-10.73069 14.2313,-15.29372 41.7121,-19.52376 25.7163,-3.95842 41.7764,-5.56418 62.5563,-6.25464 l 19.3715,-0.64366 -0.583,-33.08804 c -0.3207,-18.19841 -0.866,-34.47981 -1.2119,-36.18088 -0.6208,-3.05304 -0.5529,-3.11418 5.2771,-4.75 7.8259,-2.19582 21.329,-2.19982 25.9486,-0.008 6.1219,2.90503 6.0755,2.61297 6.247,39.30577 0.086,18.40038 0.2931,33.59193 0.4602,33.75899 0.167,0.16707 11.0622,0.73611 24.2114,1.26455 34.0519,1.36846 66.0268,4.88333 86.5696,9.51624 12.6858,2.86098 17.3526,4.68829 21.2181,8.30802 5.2144,4.88299 6.4669,9.38642 7.7109,27.7253 1.9384,28.57655 0.6447,36.39034 -6.4431,38.91469 -6.8386,2.4356 -11.3423,-3.06686 -12.5829,-15.3735 -0.4453,-4.41698 -1.5181,-9.11221 -2.3841,-10.43384 -3.3292,-5.08098 -11.8615,-5.06139 -15.2007,0.0349 -1.1027,1.68298 -2.2141,6.68463 -2.9998,13.4997 -1.3342,11.57347 -2.8911,15.27497 -7.0977,16.87432 -10.3759,3.94489 -16.3178,-3.33252 -16.3663,-20.04463 -0.034,-11.76632 -1.2887,-16.47236 -5.5194,-20.70308 -2.6815,-2.68117 -4.0801,-3.29658 -7.4927,-3.29658 -9.2588,0 -13.3808,5.84391 -14.9765,21.23263 -1.1688,11.27136 -3.1288,16.8332 -7.1139,20.18638 -4.1561,3.49718 -8.1801,4.10432 -12.668,1.91136 -5.8779,-2.87218 -8.3478,-8.41664 -9.2394,-20.74115 -0.4067,-5.62206 -1.2654,-11.20457 -1.9082,-12.40558 -1.7838,-3.33305 -5.7341,-5.45637 -10.1514,-5.45637 -5.097,0 -7.4678,2.11651 -10.9468,9.77273 -3.2268,7.10109 -5.5291,9.38705 -10.2212,10.14847 -7.282,1.1817 -11.9314,-3.64179 -13.9028,-14.42336 -2.0543,-11.23526 -6.4331,-16.09359 -13.3376,-14.7983 -6.4583,1.21159 -9.348,6.45746 -10.6688,19.36817 -1.4282,13.9596 -4.4252,18.20502 -12.8517,18.20502 -7.2909,0 -11.0013,-6.32833 -11.0124,-18.78212 -0.01,-10.40043 -3.9482,-16.61788 -10.5279,-16.61788 -3.993,0 -8.0288,3.24166 -10.1065,8.11788 -0.8886,2.08541 -1.3903,7.36438 -1.4255,15 -0.065,14.06828 -1.6911,19.52009 -6.8618,23.00463 -3.9983,2.69443 -6.7861,2.87479 -9.9696,0.64499 z m -20.6142,-61.08961 c 6.9402,-1.65305 54.4494,-3.10371 105.1372,-3.21031 49.2014,-0.10347 98.6623,-2.45697 103.0324,-4.9026 7.8418,-4.38849 -59.524,-9.26751 -82.3636,-5.96525 -6.68,0.96582 -9.8096,0.93817 -16.0519,-0.14182 -11.8197,-2.04494 -26.3855,-2.34914 -52.7541,-1.10175 -44.1799,2.08996 -60.6659,5.66246 -65.0243,14.09072 -1.9114,3.69619 -1.8602,4.33265 0.2743,3.4136 0.9625,-0.41442 4.45,-1.39659 7.75,-2.18259 z m 107.163,-45.8867 c 1.0542,-5.81391 1.651,-15.15363 1.7245,-26.98527 0.1231,-19.8043 -0.3708,-21.77969 -5.3019,-21.20648 -2.5574,0.29727 -2.5837,0.38806 -2.4087,8.30056 0.2098,9.4876 3.4898,49.66664 4.0118,49.1446 0.1992,-0.19922 1.0877,-4.36326 1.9743,-9.25341 z"
       id="path1" />
  </g>
</svg>
